<svg width="25" height="25" viewBox="0 0 25 25" fill="none" xmlns="http://www.w3.org/2000/svg">
<path fill-rule="evenodd" clip-rule="evenodd" d="M18.0241 6.97575C17.9509 6.90255 17.864 6.84461 17.7682 6.80532C17.6724 6.76602 17.5698 6.74614 17.4663 6.74684L8.56944 6.80544C8.36224 6.80679 8.16406 6.89039 8.0185 7.03785C7.87294 7.18532 7.79192 7.38457 7.79327 7.59177C7.79461 7.79897 7.87822 7.99715 8.02568 8.14271C8.17315 8.28827 8.37239 8.36929 8.5796 8.36794L15.5733 8.32184L6.97569 16.9195C6.90107 16.9916 6.84155 17.0778 6.80061 17.1731C6.75967 17.2684 6.73811 17.3709 6.73721 17.4747C6.73631 17.5784 6.75608 17.6813 6.79536 17.7773C6.83464 17.8733 6.89265 17.9605 6.96601 18.0339C7.03936 18.1072 7.12659 18.1652 7.2226 18.2045C7.31861 18.2438 7.42149 18.2636 7.52522 18.2627C7.62896 18.2618 7.73147 18.2402 7.82679 18.1993C7.9221 18.1583 8.00831 18.0988 8.08038 18.0242L16.678 9.42653L16.6319 16.4203C16.6306 16.6275 16.7116 16.8267 16.8572 16.9742C17.0027 17.1217 17.2009 17.2053 17.4081 17.2066C17.6153 17.208 17.8146 17.1269 17.962 16.9814C18.1095 16.8358 18.1931 16.6376 18.1944 16.4304L18.253 7.53356C18.2537 7.43006 18.2339 7.32744 18.1946 7.23168C18.1553 7.13592 18.0973 7.04893 18.0241 6.97575Z" fill="white"/>
</svg>
