<svg width="43" height="42" viewBox="0 0 43 42" fill="none" xmlns="http://www.w3.org/2000/svg">
<path d="M22.7972 2.08569C14.1998 2.93759 8.04558 10.2788 5.5601 18.2228C3.71479 24.1207 3.30601 32.4467 8.87665 36.5418C14.7268 40.8423 24.8061 41.7705 31.5059 39.1328C43.3114 34.4851 44.1329 19.6156 36.7402 10.7679C33.1467 6.46713 26.8952 2.93651 21.1502 4.1767C14.6748 5.57451 9.34512 12.1039 6.77842 17.9046C4.78417 22.4116 2.98044 29.7137 7.29734 33.5189C11.7956 37.4839 19.5483 35.915 24.4667 33.7689C29.7001 31.4854 34.8917 26.778 34.5969 20.5411C34.342 15.149 29.6214 11.0617 24.7826 9.58603C18.932 7.80186 11.7458 8.57062 7.25222 13.018C4.01033 16.2265 1.17128 21.9606 2.04049 26.6777C3.02907 32.0426 8.2362 32.6846 12.6444 33.178" stroke="white" stroke-width="2.5602" stroke-linecap="round"/>
</svg>
