<svg width="49" height="49" viewBox="0 0 49 49" fill="none" xmlns="http://www.w3.org/2000/svg">
<path d="M15.925 4.0835H33.075C39.6083 4.0835 44.9167 9.39183 44.9167 15.9252V33.0752C44.9167 36.2158 43.6691 39.2277 41.4483 41.4485C39.2276 43.6692 36.2156 44.9168 33.075 44.9168H15.925C9.39168 44.9168 4.08334 39.6085 4.08334 33.0752V15.9252C4.08334 12.7846 5.33094 9.77258 7.55169 7.55184C9.77243 5.3311 12.7844 4.0835 15.925 4.0835ZM15.5167 8.16683C13.5673 8.16683 11.6978 8.9412 10.3194 10.3196C8.94105 11.698 8.16668 13.5675 8.16668 15.5168V33.4835C8.16668 37.5464 11.4538 40.8335 15.5167 40.8335H33.4833C35.4327 40.8335 37.3022 40.0591 38.6806 38.6807C40.059 37.3023 40.8333 35.4328 40.8333 33.4835V15.5168C40.8333 11.4539 37.5463 8.16683 33.4833 8.16683H15.5167ZM35.2188 11.2293C35.8956 11.2293 36.5447 11.4982 37.0234 11.9768C37.502 12.4554 37.7708 13.1046 37.7708 13.7814C37.7708 14.4583 37.502 15.1074 37.0234 15.586C36.5447 16.0646 35.8956 16.3335 35.2188 16.3335C34.5419 16.3335 33.8928 16.0646 33.4142 15.586C32.9356 15.1074 32.6667 14.4583 32.6667 13.7814C32.6667 13.1046 32.9356 12.4554 33.4142 11.9768C33.8928 11.4982 34.5419 11.2293 35.2188 11.2293ZM24.5 14.2918C27.2074 14.2918 29.804 15.3673 31.7184 17.2818C33.6328 19.1962 34.7083 21.7927 34.7083 24.5002C34.7083 27.2076 33.6328 29.8041 31.7184 31.7185C29.804 33.633 27.2074 34.7085 24.5 34.7085C21.7926 34.7085 19.1961 33.633 17.2816 31.7185C15.3672 29.8041 14.2917 27.2076 14.2917 24.5002C14.2917 21.7927 15.3672 19.1962 17.2816 17.2818C19.1961 15.3673 21.7926 14.2918 24.5 14.2918ZM24.5 18.3752C22.8756 18.3752 21.3176 19.0205 20.169 20.1691C19.0203 21.3178 18.375 22.8757 18.375 24.5002C18.375 26.1246 19.0203 27.6825 20.169 28.8312C21.3176 29.9799 22.8756 30.6252 24.5 30.6252C26.1245 30.6252 27.6824 29.9799 28.831 28.8312C29.9797 27.6825 30.625 26.1246 30.625 24.5002C30.625 22.8757 29.9797 21.3178 28.831 20.1691C27.6824 19.0205 26.1245 18.3752 24.5 18.3752Z" fill="white"/>
</svg>
