<svg width="207" height="34" viewBox="0 0 207 34" fill="none" xmlns="http://www.w3.org/2000/svg">
<g clip-path="url(#clip0_6_3)">
<path d="M121.183 21.5002C119.062 21.5002 116.941 21.5042 114.818 21.4949C114.545 21.4949 114.19 21.616 114.032 21.2992C113.891 21.017 114.172 20.8239 114.316 20.6056C114.802 19.8667 115.289 19.1252 115.751 18.3704C115.997 17.9697 116.318 17.7953 116.793 17.7966C120.7 17.8072 124.609 17.8086 128.516 17.7939C129.104 17.7913 129.296 18.0296 129.153 18.5621C128.929 19.3955 128.677 20.2209 128.454 21.0556C128.319 21.5641 127.923 21.5149 127.545 21.5162C125.424 21.5189 123.303 21.5162 121.181 21.5162V21.5002H121.183Z" fill="#F15C36"/>
<path d="M33.3383 20.9717C33.3236 21.4856 32.9645 21.5029 32.5906 21.5029C30.4066 21.5042 28.2212 21.5029 26.0371 21.5029V21.5135C23.9415 21.5135 21.8459 21.5189 19.7503 21.5122C18.61 21.5082 18.531 21.3391 19.0803 20.3473C19.6833 19.2583 20.5623 18.4982 21.6838 17.9763C22.063 17.8006 22.4529 17.7513 22.8522 17.75C25.4154 17.742 27.98 17.7021 30.5419 17.754C32.7702 17.7993 33.3946 19.0999 33.3383 20.9717Z" fill="#F15C36"/>
<path d="M138.213 21.4962C136.071 21.4962 133.927 21.4962 131.784 21.4962C130.935 21.4962 130.817 21.3604 131.046 20.5697C131.262 19.8255 131.507 19.0906 131.724 18.3477C131.851 17.9098 132.133 17.7806 132.573 17.7899C133.778 17.8126 134.984 17.8099 136.19 17.7926C136.669 17.7859 137.05 17.9377 137.39 18.2652C138.113 18.9588 138.854 19.6311 139.58 20.3207C140.136 20.8479 140.315 20.8106 140.578 20.0758C140.787 19.4926 140.787 18.8563 141.074 18.2865C141.232 17.9723 141.398 17.7939 141.771 17.7966C143.155 17.8072 144.539 17.8046 145.923 17.7939C146.455 17.7899 146.583 18.0123 146.436 18.5022C146.195 19.3049 145.983 20.1157 145.77 20.9278C145.629 21.4643 145.219 21.4949 144.775 21.4949C142.587 21.4922 140.4 21.4949 138.212 21.4949V21.4976L138.213 21.4962Z" fill="#F15C36"/>
<path d="M59.1677 21.5109C57.2262 21.5109 55.2833 21.5149 53.3418 21.5095C52.4052 21.5069 52.3248 21.3977 52.7456 20.6043C53.6754 18.8523 55.0529 17.7873 57.1418 17.7979C60.0883 17.8126 63.0347 17.7979 65.9812 17.8006C66.7396 17.8006 66.9218 18.0376 66.631 18.7258C66.3537 19.3835 66.2291 20.0837 66.0254 20.7574C65.8405 21.3671 65.5564 21.5162 64.9923 21.5109C63.0508 21.4936 61.1093 21.5042 59.1664 21.5042V21.5095L59.1677 21.5109Z" fill="#F15C36"/>
<path d="M8.85412 21.5109C6.91259 21.5109 4.97106 21.5135 3.02953 21.5069C2.77227 21.5069 2.44399 21.6014 2.29392 21.3232C2.13581 21.0316 2.37432 20.8 2.51635 20.5457C3.19836 19.3156 4.13362 18.3957 5.51104 17.9657C5.9023 17.8445 6.29623 17.8072 6.69954 17.8072C9.73444 17.8046 12.7693 17.8019 15.8056 17.8046C16.5291 17.8046 16.6189 17.9683 16.3925 18.6473C16.162 19.3369 15.9369 20.0345 15.7841 20.7441C15.6622 21.3085 15.3755 21.5135 14.8127 21.5095C12.827 21.4922 10.8399 21.5029 8.85412 21.5029C8.85412 21.5069 8.85412 21.5095 8.85412 21.5135V21.5109Z" fill="#F15C36"/>
<path d="M42.9749 21.5082C41.6377 21.5082 40.3005 21.5122 38.9632 21.5042C38.773 21.5042 38.5251 21.5508 38.43 21.3272C38.3348 21.1022 38.5532 20.969 38.6778 20.8239C39.384 19.9972 40.1048 19.1825 40.8056 18.3517C41.1125 17.987 41.4715 17.7953 41.9593 17.7993C43.3407 17.8112 44.7235 17.8139 46.105 17.7979C46.7052 17.7913 47.0402 18.0948 47.1219 18.6353C47.2278 19.3369 47.3739 20.0225 47.5668 20.7068C47.745 21.3378 47.5896 21.5055 46.921 21.5122C45.6065 21.5242 44.2907 21.5162 42.9749 21.5162V21.5095V21.5082Z" fill="#F15C36"/>
<path d="M174.876 21.4949C173.559 21.4949 172.243 21.4976 170.926 21.4922C170.733 21.4922 170.481 21.5362 170.383 21.3298C170.28 21.1142 170.505 20.9677 170.625 20.8253C171.344 19.9786 172.081 19.1478 172.802 18.3025C173.078 17.979 173.395 17.8019 173.839 17.8046C175.288 17.8139 176.739 17.8019 178.191 17.7926C178.593 17.7899 178.878 17.9084 178.965 18.3504C179.119 19.1319 179.308 19.9067 179.458 20.6895C179.598 21.415 179.537 21.4829 178.76 21.4896C177.466 21.5002 176.171 21.4922 174.877 21.4922V21.4949H174.876Z" fill="#F15C36"/>
<path d="M158.821 21.4816C157.974 21.4816 157.127 21.4856 156.28 21.4776C156.112 21.4763 155.894 21.5189 155.799 21.3311C155.696 21.1261 155.892 21.0063 156.008 20.8892C156.866 20.0212 157.729 19.1572 158.597 18.2998C158.908 17.9923 159.28 17.8379 159.737 17.8419C161.276 17.8565 162.814 17.8445 164.352 17.8538C164.537 17.8538 164.789 17.7726 164.884 18.0109C164.982 18.2546 164.8 18.425 164.643 18.586C163.791 19.4607 162.933 20.33 162.09 21.214C161.862 21.4536 161.588 21.4763 161.297 21.4776C160.472 21.4816 159.648 21.4776 158.822 21.4776V21.4816H158.821Z" fill="#F15C36"/>
<path d="M80.5554 21.5162C79.864 21.5162 79.1726 21.5069 78.4825 21.5189C77.9761 21.5269 77.7684 21.2872 77.901 20.8159C78.1476 19.944 78.4263 19.08 78.6916 18.2133C78.7827 17.9177 78.9904 17.7953 79.2959 17.7966C80.7001 17.8019 82.1043 17.8033 83.5085 17.8019C83.9775 17.8019 84.0767 18.0349 83.9641 18.4476C83.7337 19.2996 83.5086 20.1516 83.3035 21.0103C83.2138 21.3871 82.9779 21.5082 82.6269 21.5069C81.9355 21.5056 81.2454 21.5069 80.554 21.5069V21.5162H80.5554Z" fill="#F15C36"/>
<path d="M107.734 18.5541C107.517 19.3435 107.289 20.129 107.072 20.9185C106.961 21.3245 106.685 21.4909 106.28 21.4909H104.205V21.4962C103.558 21.4962 102.909 21.4829 102.263 21.5002C101.703 21.5149 101.541 21.2473 101.672 20.7507C101.865 20.0225 102.057 19.293 102.275 18.5714C102.425 18.0788 102.75 17.8166 103.314 17.8232C104.585 17.8405 105.858 17.8046 107.131 17.8059C107.792 17.8059 107.899 17.9497 107.734 18.5541Z" fill="#F15C36"/>
<path d="M71.0286 21.4976C70.36 21.4976 69.6927 21.4949 69.0241 21.4976C68.5846 21.5002 68.3341 21.3498 68.4547 20.8585C68.6543 20.0438 68.8271 19.2211 69.0549 18.4156C69.1635 18.0322 69.4381 17.7966 69.8977 17.8032C71.1894 17.8206 72.4811 17.8245 73.7728 17.8072C74.3087 17.7993 74.5378 18.0256 74.4092 18.5275C74.1841 19.4035 73.9242 20.2714 73.6642 21.1381C73.5624 21.4763 73.2756 21.5189 72.9648 21.5149C72.319 21.5069 71.6731 21.5122 71.0273 21.5122V21.4976H71.0286Z" fill="#F15C36"/>
<path d="M151.222 21.4882C150.554 21.4882 149.885 21.4936 149.218 21.4869C148.761 21.4829 148.498 21.3871 148.717 20.8106C148.974 20.1317 149.132 19.4128 149.299 18.7032C149.44 18.1055 149.739 17.7819 150.404 17.7979C151.584 17.8245 152.766 17.7993 153.946 17.8072C154.671 17.8112 154.827 18.0189 154.624 18.6939C154.391 19.4753 154.133 20.2501 153.919 21.0383C153.826 21.3884 153.623 21.4976 153.295 21.4962C152.605 21.4922 151.914 21.4962 151.224 21.4962V21.4909L151.222 21.4882Z" fill="#F15C36"/>
<path d="M195.788 0.692268C194.765 0.556477 193.766 0.250282 192.718 0.311521C193.408 -0.216998 194.607 -0.0625697 195.788 0.692268Z" fill="#F15C36"/>
<path d="M191.797 0.652335C190.988 0.681623 190.344 1.19417 189.546 1.19683C189.438 1.19683 189.317 1.19683 189.258 1.08101C189.205 0.974506 189.296 0.878653 189.365 0.88531C190.097 0.957199 190.657 0.296883 191.397 0.419361C191.52 0.43933 191.671 0.386079 191.797 0.653666V0.652335Z" fill="#F15C36"/>
<path d="M206.361 18.7365C206.648 19.1785 206.611 19.5552 206.623 19.92C206.627 20.0465 206.636 20.2209 206.457 20.2182C206.307 20.2155 206.259 20.0558 206.251 19.9227C206.23 19.5619 206.168 19.1958 206.361 18.7365Z" fill="#F15C36"/>
<path d="M185.088 17.7181C185.221 17.7127 185.354 17.6981 185.485 17.7061C185.699 17.7194 185.935 17.6675 186.101 17.8565C186.127 17.8845 186.108 18.0016 186.075 18.0229C185.827 18.1773 185.56 18.1361 185.32 18.0189C185.22 17.9697 185.17 17.8166 185.096 17.7114L185.088 17.7194V17.7181Z" fill="#F15C36"/>
<path d="M185.096 17.7087C184.878 17.6954 184.66 17.6874 184.441 17.6648C184.315 17.6515 184.146 17.6422 184.169 17.4638C184.192 17.2894 184.365 17.328 184.488 17.3266C184.775 17.3213 185.008 17.4052 185.087 17.718L185.095 17.7101L185.096 17.7087Z" fill="#F15C36"/>
<path d="M197.134 1.61352C196.791 1.37256 196.546 1.20082 196.269 1.00645C196.768 0.907939 196.956 1.03574 197.134 1.61352Z" fill="#F15C36"/>
<path d="M205.995 17.8166C205.925 17.7633 205.899 17.7527 205.893 17.7354C205.813 17.4891 205.716 17.2375 205.848 16.9845C205.897 16.89 206.017 16.9126 206.058 17.0018C206.181 17.2654 206.212 17.5317 205.995 17.8152V17.8166Z" fill="#F15C36"/>
<path d="M197.614 2.06748C197.58 2.09145 197.531 2.15402 197.488 2.15002C197.39 2.1407 197.341 2.05417 197.357 1.96364C197.365 1.91838 197.438 1.84782 197.476 1.85182C197.574 1.86114 197.609 1.94634 197.614 2.06748Z" fill="#F15C36"/>
<path d="M206.745 23.4479C205.987 24.6966 204.933 25.6245 203.631 26.2809C202.139 27.033 200.812 28.0648 199.334 28.8369C195.94 30.6102 192.378 31.7005 188.489 31.1454C187.478 31.0016 186.467 30.8085 185.457 30.6381C184.979 30.5583 184.654 30.6648 184.425 31.1321C184.105 31.787 183.751 32.4274 183.305 33.0145C183.148 33.2208 183 33.3819 182.717 33.3819C180.911 33.3793 179.104 33.3779 177.298 33.3846C176.765 33.3872 176.453 33.2182 176.317 32.6324C175.954 31.0575 175.503 29.5039 175.113 27.9356C175.01 27.5189 174.787 27.3166 174.377 27.3126C173.663 27.3073 172.949 27.3193 172.235 27.3206C171.857 27.3206 171.625 27.5456 171.42 27.8251C170.238 29.436 169.038 31.0322 167.877 32.6577C167.506 33.1756 167.099 33.4139 166.437 33.4085C163.155 33.3766 159.873 33.3753 156.591 33.4032C155.81 33.4099 155.318 33.1969 154.969 32.4447C154.281 30.963 153.491 29.5265 152.735 28.0768C152.657 27.929 152.628 27.684 152.419 27.688C152.188 27.6907 152.21 27.9463 152.163 28.1007C151.753 29.432 151.316 30.7553 150.969 32.1026C150.669 33.2621 150.574 33.3912 149.358 33.3912C148.198 33.3899 147.036 33.4032 145.876 33.3739C145.039 33.354 144.99 33.2155 145.229 32.4074C145.861 30.2667 146.459 28.114 147.079 25.9693C147.312 25.1626 147.576 24.3651 147.818 23.561C147.937 23.1643 148.203 22.9873 148.607 22.9753C148.829 22.9686 149.052 22.9353 149.274 22.9353C152.667 22.9353 156.059 22.938 159.452 22.9407C159.701 22.9407 159.964 22.9433 160.086 23.2109C160.218 23.4998 159.975 23.6609 159.81 23.8286C159.234 24.4157 158.656 25.0028 158.06 25.5713C157.723 25.8921 157.623 26.2622 157.824 26.6549C158.73 28.4256 159.64 30.1948 160.591 31.9428C160.951 32.6071 161.053 32.5991 161.55 31.9814C162.664 30.5982 163.749 29.1924 164.848 27.7972C165.989 26.3501 167.138 24.9083 168.275 23.4585C168.593 23.0538 169.003 22.9074 169.501 22.9087C172.649 22.9127 175.798 22.9074 178.945 22.9167C180.026 22.9194 180.112 23.0418 180.333 24.0856C180.806 26.3168 181.315 28.54 181.808 30.7673C181.912 31.2332 182.009 31.7005 182.138 32.3009C182.434 31.8549 182.386 31.5141 182.387 31.1893C182.393 29.7475 182.405 28.3057 182.375 26.864C182.359 26.0585 182.71 25.514 183.404 25.1506C183.443 25.1293 183.482 25.108 183.521 25.0854C184.67 24.4131 184.686 24.268 183.71 23.4026C183.644 23.344 183.574 23.2868 183.511 23.2242C183.269 22.9859 183.012 22.737 183.198 22.3602C183.392 21.9688 183.769 21.9648 184.132 22.0261C185.034 22.1792 185.903 22.4121 186.7 22.9061C187.629 23.4812 188.611 23.9471 189.746 23.9817C190.928 24.0163 191.909 23.5784 192.776 22.8129C193.179 22.4574 193.515 22.0034 194.119 21.7971C194.113 22.3336 193.845 22.6717 193.557 23.0059C192.699 24.0017 191.512 24.461 190.346 24.9562C190.203 25.0161 190.051 25.0614 189.915 25.1333C189.545 25.3277 189.041 25.4808 189.06 25.9627C189.079 26.4273 189.576 26.627 189.954 26.7721C190.531 26.9944 191.143 27.1808 191.757 27.2567C193.685 27.4923 195.623 27.6401 197.567 27.491C198.494 27.4191 198.521 27.3139 198.143 26.4899C197.931 26.0252 197.602 25.6858 197.223 25.3716C196.972 25.1652 196.511 24.9682 196.638 24.6527C196.786 24.2839 197.274 24.453 197.605 24.5049C198.756 24.6833 199.908 24.7778 201.071 24.7286C202.432 24.6713 203.773 24.5182 205.052 23.995C206.023 23.5983 206.743 22.48 206.678 21.4243C206.664 21.1767 206.546 20.9025 206.871 20.6868C206.753 21.6067 207.303 22.5333 206.745 23.4479Z" fill="#F15C36"/>
<path d="M49.7093 33.3779C48.1698 33.3819 46.6289 33.3872 45.0893 33.3713C44.6096 33.3659 44.4006 33.0225 44.3014 32.5991C43.9638 31.1573 43.6275 29.7142 43.2871 28.2725C43.0969 27.467 42.8785 27.2886 42.041 27.302C39.3304 27.3432 40.1397 27.0051 38.576 29.0526C37.6341 30.288 36.7162 31.5408 35.7944 32.7908C35.513 33.1729 35.1753 33.3926 34.6715 33.3886C32.998 33.3739 31.3244 33.3886 29.6495 33.3833C29.3896 33.3833 29.0774 33.4272 28.9461 33.1223C28.8282 32.8494 29.0774 32.6843 29.2047 32.4846C29.3668 32.229 29.6348 32.0373 29.7219 31.6499C29.2275 31.6792 28.9756 32.004 28.6701 32.1997C27.4347 32.9905 26.0948 33.4019 24.6289 33.3886C23.1577 33.3753 21.6771 33.4951 20.2139 33.2981C18.7011 33.0957 17.4188 32.454 16.8172 30.9603C16.3791 29.8753 16.5184 28.7251 16.7784 27.6201C17.0812 26.3288 17.4979 25.0627 17.8168 23.7741C17.9454 23.2549 18.1987 23.0126 18.7333 23.0152C20.0276 23.0206 21.322 22.9979 22.6163 23.0166C23.2595 23.0259 23.3895 23.2522 23.2113 23.8686C22.7664 25.4182 22.3242 26.9691 21.8861 28.5214C21.6878 29.227 21.8995 29.5199 22.6539 29.5465C23.3238 29.5705 23.9938 29.5651 24.6637 29.5571C25.7196 29.5465 26.0318 29.2989 26.3212 28.2911C26.7714 26.7189 27.231 25.1506 27.6772 23.577C27.7844 23.2016 28.0376 23.0192 28.3994 22.9899C29.7581 22.8794 31.1208 22.9167 32.4808 22.9447C32.8814 22.9527 33.1092 23.2229 32.9966 23.6263C32.4848 25.4555 32.0641 27.3139 31.3137 29.0712C31.2387 29.2483 31.0497 29.452 31.2923 29.5838C31.4825 29.6876 31.587 29.444 31.6916 29.3122C33.1668 27.4484 34.6514 25.5939 36.0999 23.7102C36.5005 23.1896 36.9494 22.9074 37.614 22.9101C40.7842 22.922 43.9531 22.9274 47.1233 22.914C47.8348 22.9114 48.2193 23.1497 48.3587 23.8979C48.6856 25.6592 49.042 27.4178 49.4815 29.1538C49.72 30.0977 49.7924 31.0775 50.1327 31.9987C50.2225 32.2437 50.2332 32.5206 50.256 32.7842C50.2868 33.1649 50.0952 33.3779 49.7093 33.3779Z" fill="#F15C36"/>
<path d="M203.914 21.5388C202.024 22.7876 199.951 23.0951 197.866 22.291C196.795 21.877 196.136 20.7906 195.538 19.7909C195.313 19.4141 195.174 18.9894 194.998 18.586C194.365 17.1336 193.177 16.3442 191.615 16.2976C190.322 16.2603 189.426 17.087 188.748 18.1001C188.37 18.6659 188.015 19.261 187.889 19.9559C187.815 20.3633 187.547 20.2901 187.389 20.0451C187.07 19.5499 186.8 19.0214 186.526 18.4955C186.442 18.3318 186.526 18.1507 186.714 18.152C187.484 18.1587 187.904 17.5796 188.375 17.1416C189.112 16.4587 189.908 15.8582 190.914 15.797C192.091 15.7251 193.266 15.8662 194.207 16.7302C194.391 16.9006 194.555 17.2241 194.858 17.0897C195.154 16.9592 195.028 16.6211 195.041 16.3681C195.107 15.1726 195.158 13.9771 195.221 12.7817C195.305 11.1535 195.171 9.55063 194.686 7.98504C194.592 7.68284 194.475 7.58432 194.161 7.76138C193.137 8.34049 191.947 8.55483 190.846 8.66666C189.474 8.80644 188.107 8.30189 187.206 7.08642C186.873 6.63778 186.877 6.06666 186.889 5.54613C186.911 4.61823 187.019 3.69165 187.105 2.76508C187.171 2.04486 187.672 1.64148 188.241 1.30466C188.381 1.22345 188.578 1.18884 188.667 1.33794C188.795 1.54696 188.564 1.56559 188.442 1.64547C187.926 1.97962 187.925 2.18597 188.45 2.4469C188.848 2.64526 188.986 3.01536 189.152 3.3788C189.242 3.57317 189.187 3.82345 189.406 4.0045C189.683 3.75822 189.814 3.21505 190.315 3.4041C190.813 3.59048 190.924 4.06308 190.991 4.54367C191.089 5.26789 191.383 5.9535 191.407 6.69503C191.417 6.95463 191.596 7.23553 191.85 7.18494C192.174 7.11971 192.041 6.78955 191.989 6.56722C191.905 6.20112 191.752 5.84966 191.773 5.46359C191.785 5.25724 191.815 5.04557 192.067 5.0043C192.325 4.96037 192.487 5.10148 192.576 5.33579C192.747 5.78975 192.934 6.24106 193.086 6.70168C193.168 6.94797 193.293 7.09308 193.562 7.05847C193.847 7.02119 193.955 6.79754 193.901 6.57521C193.774 6.04669 194.006 5.88827 194.489 5.78576C194.994 5.67793 195.124 5.13476 195.407 4.77532C195.887 4.16825 196.136 4.14961 196.558 4.79262C197.188 5.75514 197.792 6.73496 198.399 7.71346C198.526 7.91981 198.678 8.17941 198.482 8.38842C198.237 8.64802 198.043 8.37511 197.862 8.23266C197.429 7.89318 197.245 8.07157 197.132 8.5322C196.933 9.34428 196.948 10.1723 197.031 10.9818C197.3 13.6057 197.957 16.1352 199.503 18.3185C200.479 19.6963 201.663 20.9038 203.617 20.7094C203.854 20.6855 204.075 20.7267 204.165 20.9824C204.253 21.2326 204.117 21.4057 203.914 21.5388Z" fill="#F15C36"/>
<path d="M145.064 24.0922C144.541 26.1011 143.979 28.1007 143.444 30.107C143.232 30.8964 143.031 31.6885 142.857 32.4873C142.726 33.0917 142.427 33.4139 141.761 33.4006C140.4 33.3753 139.038 33.4019 137.677 33.3886C136.911 33.3806 136.726 33.1197 136.964 32.3821C137.472 30.8032 137.883 29.1977 138.32 27.5988C138.402 27.2993 138.375 27.0796 138.161 26.8799C137.38 26.1531 136.597 25.4288 135.811 24.7086C135.485 24.4091 135.324 24.6008 135.166 24.911C134.776 25.6725 134.702 26.5245 134.453 27.3259C133.936 28.9914 133.521 30.6874 133.052 32.3688C132.789 33.3154 132.655 33.4006 131.646 33.3966C130.509 33.3926 129.37 33.4046 128.232 33.3926C127.578 33.3846 127.404 33.1969 127.57 32.5712C128.048 30.7753 128.564 28.99 129.065 27.2008C129.382 26.0719 129.75 24.9549 129.991 23.8113C130.135 23.1284 130.523 22.9407 131.113 22.9367C132.429 22.9274 133.746 22.9314 135.063 22.93H137.74V22.934C139.86 22.934 141.98 22.9314 144.099 22.9353C145.213 22.938 145.332 23.0618 145.064 24.0922Z" fill="#F15C36"/>
<path d="M82.513 24.1921C82.0105 26.0492 81.4652 27.8957 80.952 29.7502C80.68 30.73 80.4348 31.7165 80.1842 32.7016C80.0543 33.2102 79.7447 33.4072 79.2101 33.3966C77.8943 33.3699 76.5758 33.3966 75.2587 33.3833C74.4481 33.3753 74.3489 33.1849 74.5673 32.3954C74.968 30.9443 75.3525 29.4879 75.7022 28.0248C75.8644 27.3472 75.7036 27.1915 74.9974 27.1821C74.3047 27.1742 73.612 27.1875 72.9206 27.1821C72.465 27.1781 72.1233 27.3645 71.9987 27.7999C71.5391 29.3934 71.0715 30.9856 70.6762 32.5965C70.5382 33.1636 70.2689 33.3912 69.7235 33.3899C68.3394 33.3872 66.9553 33.3872 65.5712 33.3859C65.0365 33.3859 64.7793 33.1982 64.9454 32.6098C65.4935 30.6728 66.0214 28.7291 66.5506 26.7868C66.7824 25.9334 67.0156 25.08 67.2246 24.2214C67.4819 23.1617 67.5985 22.9953 68.6851 22.9766C70.8049 22.938 72.9259 22.9646 75.047 22.9646V22.934C77.2123 22.934 79.3776 22.93 81.5429 22.9353C82.5786 22.9393 82.785 23.187 82.513 24.1921Z" fill="#F15C36"/>
<path d="M127.693 24.1295C127.491 24.875 127.299 25.6259 127.143 26.382C127.022 26.9585 126.705 27.2021 126.116 27.1981C124.22 27.1861 122.324 27.1928 120.427 27.1968C119.708 27.1968 119.012 28.0661 119.161 28.7624C119.253 29.2004 119.607 29.1351 119.906 29.1365C121.624 29.1444 123.341 29.1365 125.059 29.1418C126.13 29.1458 126.147 29.2137 125.986 30.2414C125.863 31.0349 125.521 31.7631 125.394 32.5539C125.303 33.1157 124.939 33.4046 124.305 33.3952C122.363 33.3673 120.422 33.3859 118.48 33.3859V33.3833C116.54 33.3833 114.598 33.3872 112.657 33.3819C111.857 33.3793 111.708 33.1729 111.917 32.4101C112.715 29.5106 113.524 26.6163 114.297 23.7115C114.43 23.2136 114.679 22.9939 115.169 22.9806C115.614 22.97 116.06 22.9407 116.507 22.9393C119.919 22.9367 123.333 22.9393 126.747 22.9393C127.856 22.9393 127.971 23.0964 127.693 24.1295Z" fill="#F15C36"/>
<path d="M111.716 30.3186C111.002 31.1973 110.246 32.0413 109.539 32.924C109.258 33.2768 108.936 33.4019 108.503 33.3992C106.918 33.3872 105.333 33.3939 103.748 33.3952C102.184 33.3952 100.622 33.4006 99.0582 33.3939C98.202 33.3899 98.0278 33.1689 98.2583 32.3315C98.5571 31.2452 98.8907 30.1682 99.2042 29.0859C99.7201 27.302 100.255 25.5207 100.733 23.7261C100.868 23.2216 101.131 23.0325 101.612 22.9979C102.949 22.9021 104.289 22.9207 105.628 22.9393C106.325 22.9487 106.526 23.179 106.359 23.8672C106.051 25.136 105.683 26.39 105.337 27.6494C105.295 27.7985 105.235 27.9423 105.191 28.0914C104.86 29.2017 105.001 29.4014 106.134 29.4054C107.853 29.4134 109.572 29.416 111.292 29.424C111.557 29.4254 111.872 29.3788 112.02 29.6503C112.188 29.9565 111.868 30.1323 111.716 30.3186Z" fill="#F15C36"/>
<path d="M63.5171 30.1336C63.3456 30.9617 63.028 31.7431 62.8605 32.5685C62.7373 33.1729 62.3902 33.4458 61.7243 33.4192C60.4983 33.3726 59.2696 33.4059 58.0422 33.4059V33.3886C56.8363 33.3886 55.6304 33.4179 54.4271 33.3806C53.1542 33.342 52.0314 32.884 51.1537 31.9508C50.1702 30.9057 50.1207 29.6184 50.3913 28.3257C50.7183 26.7681 51.1497 25.2318 51.5356 23.6875C51.6401 23.2668 51.9108 23.0339 52.3422 23.0245C53.8135 22.9913 55.286 22.9513 56.7586 22.9527C57.3227 22.9527 57.4929 23.2748 57.3173 23.8007C56.8819 25.1 56.4464 26.3993 56.0377 27.7067C55.8005 28.4682 56.2226 29.034 57.0386 29.0433C58.9132 29.0646 60.7877 29.0539 62.6636 29.0619C63.6739 29.0659 63.7154 29.1791 63.5171 30.1336Z" fill="#F15C36"/>
<path d="M13.2946 30.075C13.0641 31.0415 12.7412 31.9854 12.4679 32.9426C12.3513 33.354 12.0418 33.4032 11.6853 33.4032C10.391 33.4006 9.09664 33.4019 7.80229 33.4019V33.3886C6.61915 33.3886 5.43601 33.4139 4.25421 33.3819C3.03489 33.35 1.93214 32.9719 1.04512 32.1039C-0.215731 30.8698 -0.117918 29.3441 0.21706 27.8212C0.50916 26.4846 0.95937 25.1826 1.26889 23.8486C1.39752 23.2935 1.65076 23.0232 2.19879 23.0126C3.56013 22.9859 4.92014 22.9513 6.28149 22.9527C7.06132 22.9527 7.20469 23.1457 6.98092 23.8739C6.61245 25.0761 6.23459 26.2755 5.81922 27.4617C5.48291 28.4216 5.87282 29.0433 6.91795 29.0539C8.7697 29.0712 10.6228 29.0579 12.4746 29.0619C13.4018 29.0646 13.5116 29.1644 13.2946 30.075Z" fill="#F15C36"/>
</g>
<defs>
<clipPath id="clip0_6_3">
<rect width="207" height="33.4205" fill="white"/>
</clipPath>
</defs>
</svg>
