<svg width="49" height="49" viewBox="0 0 49 49" fill="none" xmlns="http://www.w3.org/2000/svg">
<path d="M33.8917 11.8825C32.4964 10.289 31.7273 8.24302 31.7275 6.125H25.4188V31.4417C25.3711 32.812 24.793 34.1103 23.8065 35.0626C22.8199 36.0148 21.502 36.5467 20.1308 36.5458C17.2317 36.5458 14.8225 34.1775 14.8225 31.2375C14.8225 27.7258 18.2117 25.0921 21.7029 26.1742V19.7225C14.6592 18.7833 8.49335 24.255 8.49335 31.2375C8.49335 38.0363 14.1283 42.875 20.1104 42.875C26.5213 42.875 31.7275 37.6688 31.7275 31.2375V18.3954C34.2857 20.2326 37.3571 21.2183 40.5067 21.2129V14.9042C40.5067 14.9042 36.6683 15.0879 33.8917 11.8825Z" fill="white"/>
</svg>
